<svg xmlns="http://www.w3.org/2000/svg" xmlns:xlink="http://www.w3.org/1999/xlink" version="1.1" x="0px" y="0px" viewBox="0 0 100 125" enable-background="new 0 0 100 100" xml:space="preserve">

	<style type="text/css">
   
    .e1 {fill:#28A1E1;}
   
  </style>

	<path class ="e1" d="M46.904,45c-0.553,0-1,0.447-1,1v26c0,0.553,0.447,1,1,1s1-0.447,1-1V46C47.904,45.447,47.457,45,46.904,45z M54.904,45  c-0.553,0-1,0.447-1,1v26c0,0.553,0.447,1,1,1s1-0.447,1-1V46C55.904,45.447,55.457,45,54.904,45z M68.904,44h-6v-2.594  c1.699-0.784,2.887-2.492,2.887-4.481c0-2.346-1.654-4.354-3.91-4.834c0.488-1.103,0.736-2.27,0.736-3.474  C62.617,23.865,58.752,20,54,20c-3.803,0-7.092,2.446-8.213,6.024c-0.934-1.104-2.299-1.745-3.766-1.745  c-2.6,0-4.766,1.827-5.08,4.179c-0.781-0.491-1.689-0.756-2.623-0.756c-2.488,0-4.592,1.879-4.898,4.323  c-2.445,0.307-4.324,2.41-4.324,4.9c0,2.798,2.156,5.074,4.809,5.074v12c0,0.758,0.002,2.385,1,3.313V74c0,3.309,2.691,6,6,6h20  c3.309,0,6-2.691,6-6v-4h6c3.309,0,6-2.691,6-6V50C74.904,46.691,72.213,44,68.904,44z M60.904,74c0,2.206-1.795,4-4,4h-20  c-2.207,0-4-1.794-4-4V58c1.801,0,3-0.681,3-4v-9h2.109c0.031,0.134,0.078,0.259,0.121,0.386c-0.137,0.171-0.23,0.378-0.23,0.614v26  c0,0.553,0.447,1,1,1s1-0.447,1-1V47.486c0.463,0.233,0.982,0.372,1.545,0.372c1.082,0,2.084-0.458,2.75-1.257  c0.6-0.722,0.85-1.627,0.705-2.559v-3.03H58.07c0.822,0.56,1.779,0.855,2.775,0.855c0.02,0,0.039-0.006,0.059-0.006V74z   M60.846,39.868c-0.611,0-1.199-0.188-1.693-0.539l-0.178-0.128c-0.17-0.123-0.375-0.188-0.584-0.188H43.904c-0.553,0-1,0.447-1,1  v4.114c0,0.061,0.006,0.121,0.016,0.181c0.088,0.477-0.092,0.814-0.258,1.015c-0.281,0.336-0.732,0.536-1.213,0.536  c-1.068,0-1.545-0.934-1.545-1.858c0-0.553-0.447-1-1-1h-4c-0.553,0-1,0.447-1,1v10c0,2-0.293,2-1,2c-0.604,0-1,0-1-2V41  c0-0.553-0.447-1-1-1h-1c-1.549,0-2.809-1.379-2.809-3.074c0-1.534,1.199-2.821,2.729-2.932l0.596-0.044  c0.494-0.036,0.889-0.43,0.924-0.924l0.045-0.597c0.111-1.529,1.398-2.728,2.93-2.728c0.686,0,1.348,0.24,1.877,0.679l0.906,1.217  c0.258,0.346,0.709,0.486,1.117,0.352c0.408-0.136,0.686-0.519,0.686-0.949v-1.99c0.014-1.506,1.412-2.73,3.117-2.73  c1.004,0,1.93,0.507,2.475,1.355l0.881,1.371c0.219,0.339,0.619,0.513,1.012,0.445c0.396-0.068,0.713-0.366,0.805-0.758l0.371-1.588  C48.268,24.1,50.914,22,54,22c3.648,0,6.617,2.969,6.617,6.617c0,1.028-0.236,2.023-0.703,2.956l-0.438,0.873  c-0.145,0.29-0.141,0.634,0.014,0.92s0.436,0.479,0.758,0.52l0.969,0.12c1.467,0.183,2.574,1.438,2.574,2.919  C63.791,38.548,62.469,39.868,60.846,39.868z M72.904,64c0,2.206-1.795,4-4,4h-6V46h6c2.205,0,4,1.794,4,4V64z M57.904,32  c0-2.757-2.244-5-5-5c-2.758,0-5,2.243-5,5c0,0.553,0.447,1,1,1s1-0.447,1-1c0-1.654,1.346-3,3-3s3,1.346,3,3  c0,0.406-0.08,0.799-0.234,1.168c-0.014,0.032-0.01,0.065-0.02,0.098c-0.217,0.423-0.125,0.944,0.266,1.242  c0.096,0.074,0.188,0.155,0.273,0.243c0.461,0.471,0.715,1.092,0.715,1.749c0,0.553,0.447,1,1,1s1-0.447,1-1  c0-1.155-0.441-2.242-1.23-3.08C57.811,32.96,57.904,32.488,57.904,32z"/></svg>