<svg xmlns="http://www.w3.org/2000/svg" xmlns:xlink="http://www.w3.org/1999/xlink" version="1.1" x="0px" y="0px" viewBox="0 0 64 80" style="enable-background:new 0 0 64 64;" xml:space="preserve">

		<style type="text/css">
   
    .e1 {fill:#28A1E1;}
   
  </style>

	<path class="e1" d="M45.07,57.764V26c0-0.552-0.447-1-1-1h-22c-0.553,0-1,0.448-1,1v2h-4c-2.628,0-4.766,2.045-4.962,4.624l-2.331-2.331  C9.589,30.105,9.336,30,9.07,30h-4c-0.266,0-0.52,0.105-0.707,0.293L2.656,32H1.07v2h2c0.266,0,0.519-0.105,0.707-0.293L5.484,32  h3.172l2,2H7.07v2h7c1.654,0,3,1.346,3,3v11c0,1.654-1.346,3-3,3h-13v2h11.101c0.465,2.279,2.484,4,4.899,4h3.433  c-0.306,0.854-0.234,1.791,0.251,2.577C21.304,62.468,22.258,63,23.306,63h19.527c1.048,0,2.002-0.532,2.553-1.423  c0.55-0.891,0.6-1.982,0.131-2.919L45.07,57.764z M14.07,33c0-1.654,1.346-3,3-3h4v2h-3c-1.103,0-2,0.897-2,2v0.424  c-0.614-0.269-1.288-0.424-2-0.424V33z M18.044,36h0.026v-2h3v19h-3.026c0.635-0.838,1.026-1.87,1.026-3V39  C19.07,37.87,18.679,36.838,18.044,36z M14.249,54.982c0.845-0.03,1.63-0.275,2.319-0.676C16.935,54.727,17.469,55,18.07,55h3v2h-4  C15.761,57,14.658,56.153,14.249,54.982z M32.07,32c-1.654,0-3,1.346-3,3v3c0,0.551-0.448,1-1,1c-0.552,0-1-0.449-1-1V27h13v1  c0,0.551-0.448,1-1,1h-1c-0.553,0-1,0.448-1,1v13c0,0.551-0.448,1-1,1c-0.552,0-1-0.449-1-1v-8C35.07,33.346,33.724,32,32.07,32z   M43.684,60.525C43.596,60.668,43.338,61,42.834,61H23.306c-0.504,0-0.763-0.332-0.851-0.475c-0.089-0.143-0.27-0.522-0.044-0.973  l0.553-1.105c0.069-0.139,0.106-0.292,0.106-0.447V27h2v11c0,1.654,1.346,3,3,3c1.654,0,3-1.346,3-3v-3c0-0.551,0.448-1,1-1  c0.552,0,1,0.449,1,1v8c0,1.654,1.346,3,3,3c1.654,0,3-1.346,3-3V31c1.654,0,3-1.346,3-3v-1h1v31c0,0.155,0.036,0.309,0.105,0.447  l0.553,1.105C43.954,60.003,43.773,60.383,43.684,60.525z"/><path class="e1" d="M28.07,43c-1.654,0-3,1.346-3,3v2c0,1.654,1.346,3,3,3c1.654,0,3-1.346,3-3v-2C31.07,44.346,29.724,43,28.07,43z M29.07,48  c0,0.551-0.448,1-1,1c-0.552,0-1-0.449-1-1v-2c0-0.551,0.448-1,1-1c0.552,0,1,0.449,1,1V48z"/><path class="e1" d="M5.289,18.625C5.479,18.863,5.767,19,6.07,19c0.022,0,0.045-0.001,0.067-0.002c0.326-0.022,0.622-0.202,0.79-0.483  l2.411-4.019l4.106,3.285c0.237,0.188,0.545,0.262,0.84,0.196c0.295-0.065,0.545-0.259,0.68-0.529l2.493-4.987l5.058,3.372  c0.306,0.205,0.702,0.224,1.026,0.05c0.325-0.174,0.528-0.513,0.528-0.882V9.153l5.858,0.837c0.36,0.052,0.715-0.095,0.935-0.381  c0.22-0.287,0.268-0.67,0.125-1.002l-2.958-6.901C28.056,1.472,28.07,1.237,28.07,1h-2c0,5.962-11.448,11-25,11v2  c0.173,0,0.342-0.005,0.514-0.006L5.289,18.625z M5.953,16.252l-1.865-2.331c1.171-0.06,2.316-0.156,3.433-0.283L5.953,16.252z   M13.729,15.446l-2.874-2.299c1.604-0.292,3.13-0.653,4.563-1.079L13.729,15.446z M18.73,10.905c1.213-0.5,2.333-1.049,3.34-1.646  v3.873L18.73,10.905z M27.078,4.556l1.372,3.202l-3.593-0.513C25.795,6.404,26.538,5.503,27.078,4.556z"/><path class="e1" d="M41.07,19h2c0-3.86,3.141-7,7-7v-2C45.107,10,41.07,14.038,41.07,19z"/><path class="e1" d="M28.07,16c3.309,0,6,2.691,6,6h2c0-4.411-3.589-8-8-8V16z"/><path class="e1" d="M44.07,4V2c-4.411,0-8,3.589-8,8h2C38.07,6.691,40.761,4,44.07,4z"/><path class="e1" d="M57.07,14c2.206,0,4-1.794,4-4s-1.794-4-4-4c-2.206,0-4,1.794-4,4S54.864,14,57.07,14z M57.07,8c1.102,0,2,0.897,2,2  s-0.898,2-2,2c-1.103,0-2-0.897-2-2S55.967,8,57.07,8z"/><path class="e1" d="M49.07,8c1.654,0,3-1.346,3-3s-1.346-3-3-3c-1.654,0-3,1.346-3,3S47.416,8,49.07,8z M49.07,4c0.552,0,1,0.449,1,1  s-0.448,1-1,1c-0.552,0-1-0.449-1-1S48.518,4,49.07,4z"/><path class="e1" d="M56.07,24.5c0-2.481-2.019-4.5-4.5-4.5c-2.481,0-4.5,2.019-4.5,4.5s2.019,4.5,4.5,4.5C54.051,29,56.07,26.981,56.07,24.5z   M49.07,24.5c0-1.378,1.121-2.5,2.5-2.5c1.379,0,2.5,1.122,2.5,2.5s-1.121,2.5-2.5,2.5C50.191,27,49.07,25.878,49.07,24.5z"/><path class="e1" d="M53.07,37.5c0,1.93,1.57,3.5,3.5,3.5c1.93,0,3.5-1.57,3.5-3.5S58.5,34,56.57,34C54.64,34,53.07,35.57,53.07,37.5z   M58.07,37.5c0,0.827-0.673,1.5-1.5,1.5c-0.827,0-1.5-0.673-1.5-1.5s0.673-1.5,1.5-1.5C57.397,36,58.07,36.673,58.07,37.5z"/><path class="e1" d="M57.07,47c0-2.206-1.794-4-4-4c-2.206,0-4,1.794-4,4c0,2.206,1.794,4,4,4C55.276,51,57.07,49.206,57.07,47z M51.07,47  c0-1.103,0.897-2,2-2c1.102,0,2,0.897,2,2s-0.898,2-2,2C51.967,49,51.07,48.103,51.07,47z"/><path class="e1" d="M53.07,60h2c0-3.859,3.141-7,7-7v-2C57.107,51,53.07,55.037,53.07,60z"/><path class="e1" d="M60.07,25h2c0-4.962-4.037-9-9-9v2C56.929,18,60.07,21.14,60.07,25z"/></svg>