<?xml version="1.0" encoding="utf-8"?>
<!-- Generator: Adobe Illustrator 22.1.0, SVG Export Plug-In . SVG Version: 6.00 Build 0)  -->
<svg version="1.1" id="Layer_1" xmlns="http://www.w3.org/2000/svg" xmlns:xlink="http://www.w3.org/1999/xlink" x="0px" y="0px"
	 viewBox="0 0 100 125" style="enable-background:new 0 0 100 125;" xml:space="preserve">
<style type="text/css">
	.st0{fill:#28A1E1;}
</style>
<g>
	<g>
		<path class="st0" d="M88.5,88c-1.3,0-1.9-0.4-2.6-1c-0.8-0.6-1.9-1.4-3.8-1.4s-3,0.8-3.8,1.4c-0.7,0.6-1.3,1-2.6,1
			c-1.3,0-1.9-0.4-2.6-1c-0.8-0.6-1.9-1.4-3.8-1.4s-3,0.8-3.8,1.4c-0.7,0.6-1.3,1-2.6,1c-1.3,0-1.9-0.4-2.6-1
			c-0.8-0.6-1.9-1.4-3.8-1.4c-1.9,0-3,0.8-3.8,1.4c-0.7,0.6-1.3,1-2.6,1s-1.9-0.4-2.6-1c-0.8-0.6-1.9-1.4-3.8-1.4
			c-1.9,0-3,0.8-3.8,1.4c-0.7,0.6-1.3,1-2.6,1s-1.9-0.4-2.6-1c-0.8-0.6-1.9-1.4-3.8-1.4c-1.9,0-3,0.8-3.8,1.4c-0.7,0.6-1.3,1-2.6,1
			c-1.3,0-1.9-0.4-2.6-1c-0.8-0.6-1.9-1.4-3.8-1.4s-3,0.8-3.8,1.4c-0.7,0.6-1.3,1-2.6,1s-1.9-0.4-2.6-1c-0.8-0.6-1.9-1.4-3.8-1.4v2
			c1.3,0,1.9,0.4,2.6,1c0.8,0.6,1.9,1.4,3.8,1.4s3-0.8,3.8-1.4c0.7-0.6,1.3-1,2.6-1s1.9,0.4,2.6,1c0.8,0.6,1.9,1.4,3.8,1.4
			s3-0.8,3.8-1.4c0.7-0.6,1.3-1,2.6-1c1.3,0,1.9,0.4,2.6,1c0.8,0.6,1.9,1.4,3.8,1.4c1.9,0,3-0.8,3.8-1.4c0.7-0.6,1.3-1,2.6-1
			s1.9,0.4,2.6,1C47,89.2,48,90,49.9,90s3-0.8,3.8-1.4c0.7-0.6,1.3-1,2.6-1s1.9,0.4,2.6,1c0.8,0.6,1.9,1.4,3.8,1.4
			c1.9,0,3-0.8,3.8-1.4c0.7-0.6,1.3-1,2.6-1c1.3,0,1.9,0.4,2.6,1c0.8,0.6,1.9,1.4,3.8,1.4s3-0.8,3.8-1.4c0.7-0.6,1.3-1,2.6-1
			c1.3,0,1.9,0.4,2.6,1c0.8,0.6,1.9,1.4,3.8,1.4s3-0.8,3.8-1.4s1.3-1,2.6-1v-2c-1.9,0-3,0.8-3.8,1.4C90.4,87.6,89.8,88,88.5,88z"/>
		<path class="st0" d="M88.5,93c-1.3,0-1.9-0.4-2.6-1c-0.8-0.6-1.9-1.4-3.8-1.4s-3,0.8-3.8,1.4c-0.7,0.6-1.3,1-2.6,1
			c-1.3,0-1.9-0.4-2.6-1c-0.8-0.6-1.9-1.4-3.8-1.4s-3,0.8-3.8,1.4c-0.7,0.6-1.3,1-2.6,1c-1.3,0-1.9-0.4-2.6-1
			c-0.8-0.6-1.9-1.4-3.8-1.4c-1.9,0-3,0.8-3.8,1.4c-0.7,0.6-1.3,1-2.6,1s-1.9-0.4-2.6-1c-0.8-0.6-1.9-1.4-3.8-1.4
			c-1.9,0-3,0.8-3.8,1.4c-0.7,0.6-1.3,1-2.6,1s-1.9-0.4-2.6-1c-0.8-0.6-1.9-1.4-3.8-1.4c-1.9,0-3,0.8-3.8,1.4c-0.7,0.6-1.3,1-2.6,1
			c-1.3,0-1.9-0.4-2.6-1c-0.8-0.6-1.9-1.4-3.8-1.4s-3,0.8-3.8,1.4c-0.7,0.6-1.3,1-2.6,1s-1.9-0.4-2.6-1c-0.8-0.6-1.9-1.4-3.8-1.4v2
			c1.3,0,1.9,0.4,2.6,1c0.8,0.6,1.9,1.4,3.8,1.4s3-0.8,3.8-1.4c0.7-0.6,1.3-1,2.6-1s1.9,0.4,2.6,1c0.8,0.6,1.9,1.4,3.8,1.4
			s3-0.8,3.8-1.4c0.7-0.6,1.3-1,2.6-1c1.3,0,1.9,0.4,2.6,1c0.8,0.6,1.9,1.4,3.8,1.4c1.9,0,3-0.8,3.8-1.4c0.7-0.6,1.3-1,2.6-1
			s1.9,0.4,2.6,1C47,94.2,48,95,49.9,95s3-0.8,3.8-1.4c0.7-0.6,1.3-1,2.6-1s1.9,0.4,2.6,1c0.8,0.6,1.9,1.4,3.8,1.4
			c1.9,0,3-0.8,3.8-1.4c0.7-0.6,1.3-1,2.6-1c1.3,0,1.9,0.4,2.6,1c0.8,0.6,1.9,1.4,3.8,1.4s3-0.8,3.8-1.4c0.7-0.6,1.3-1,2.6-1
			c1.3,0,1.9,0.4,2.6,1c0.8,0.6,1.9,1.4,3.8,1.4s3-0.8,3.8-1.4s1.3-1,2.6-1v-2c-1.9,0-3,0.8-3.8,1.4C90.4,92.6,89.8,93,88.5,93z"/>
		<path class="st0" d="M88.5,83c-1.3,0-1.9-0.4-2.6-1c-0.8-0.6-1.9-1.4-3.8-1.4s-3,0.8-3.8,1.4c-0.7,0.6-1.3,1-2.6,1
			c-1.3,0-1.9-0.4-2.6-1c-0.8-0.6-1.9-1.4-3.8-1.4s-3,0.8-3.8,1.4c-0.7,0.6-1.3,1-2.6,1c-1.3,0-1.9-0.4-2.6-1
			c-0.8-0.6-1.9-1.4-3.8-1.4c-1.9,0-3,0.8-3.8,1.4c-0.7,0.6-1.3,1-2.6,1s-1.9-0.4-2.6-1c-0.8-0.6-1.9-1.4-3.8-1.4
			c-1.9,0-3,0.8-3.8,1.4c-0.7,0.6-1.3,1-2.6,1s-1.9-0.4-2.6-1c-0.8-0.6-1.9-1.4-3.8-1.4c-1.9,0-3,0.8-3.8,1.4c-0.7,0.6-1.3,1-2.6,1
			c-1.3,0-1.9-0.4-2.6-1c-0.8-0.6-1.9-1.4-3.8-1.4s-3,0.8-3.8,1.4c-0.7,0.6-1.3,1-2.6,1s-1.9-0.4-2.6-1c-0.8-0.6-1.9-1.4-3.8-1.4v2
			c1.3,0,1.9,0.4,2.6,1c0.8,0.6,1.9,1.4,3.8,1.4s3-0.8,3.8-1.4c0.7-0.6,1.3-1,2.6-1s1.9,0.4,2.6,1c0.8,0.6,1.9,1.4,3.8,1.4
			s3-0.8,3.8-1.4c0.7-0.6,1.3-1,2.6-1c1.3,0,1.9,0.4,2.6,1c0.8,0.6,1.9,1.4,3.8,1.4c1.9,0,3-0.8,3.8-1.4c0.7-0.6,1.3-1,2.6-1
			s1.9,0.4,2.6,1C47,84.2,48,85,49.9,85s3-0.8,3.8-1.4c0.7-0.6,1.3-1,2.6-1s1.9,0.4,2.6,1c0.8,0.6,1.9,1.4,3.8,1.4
			c1.9,0,3-0.8,3.8-1.4c0.7-0.6,1.3-1,2.6-1c1.3,0,1.9,0.4,2.6,1c0.8,0.6,1.9,1.4,3.8,1.4s3-0.8,3.8-1.4c0.7-0.6,1.3-1,2.6-1
			c1.3,0,1.9,0.4,2.6,1c0.8,0.6,1.9,1.4,3.8,1.4s3-0.8,3.8-1.4s1.3-1,2.6-1v-2c-1.9,0-3,0.8-3.8,1.4C90.4,82.6,89.8,83,88.5,83z"/>
		<path class="st0" d="M77.6,13.9c-3.1,0-5.7,2.6-5.7,5.7s2.6,5.7,5.7,5.7s5.7-2.6,5.7-5.7S80.8,13.9,77.6,13.9z M77.6,23.3
			c-2,0-3.7-1.7-3.7-3.7s1.7-3.7,3.7-3.7s3.7,1.7,3.7,3.7S79.7,23.3,77.6,23.3z"/>
		<path class="st0" d="M77.6,13c0.5,0,0.9-0.4,0.9-0.9v-1.2c0-0.5-0.4-0.9-0.9-0.9s-0.9,0.4-0.9,0.9v1.2C76.7,12.6,77.2,13,77.6,13z
			"/>
		<path class="st0" d="M73.1,13.6c0.2,0.3,0.5,0.5,0.8,0.5c0.2,0,0.3,0,0.4-0.1c0.4-0.2,0.6-0.8,0.3-1.2l-0.6-1
			c-0.2-0.4-0.8-0.6-1.2-0.3c-0.4,0.2-0.6,0.8-0.3,1.2L73.1,13.6z"/>
		<path class="st0" d="M69.7,16.1l1,0.6c0.1,0.1,0.3,0.1,0.4,0.1c0.3,0,0.6-0.2,0.8-0.5c0.2-0.4,0.1-1-0.3-1.2l-1-0.6
			c-0.4-0.2-1-0.1-1.2,0.3C69.1,15.3,69.2,15.8,69.7,16.1z"/>
		<path class="st0" d="M68.9,20.5h1.2c0.5,0,0.9-0.4,0.9-0.9s-0.4-0.9-0.9-0.9h-1.2c-0.5,0-0.9,0.4-0.9,0.9S68.4,20.5,68.9,20.5z"/>
		<path class="st0" d="M70.7,22.6l-1,0.6c-0.4,0.2-0.6,0.8-0.3,1.2c0.2,0.3,0.5,0.5,0.8,0.5c0.2,0,0.3,0,0.4-0.1l1-0.6
			c0.4-0.2,0.6-0.8,0.3-1.2C71.7,22.5,71.1,22.3,70.7,22.6z"/>
		<path class="st0" d="M73.1,25.7l-0.6,1c-0.2,0.4-0.1,1,0.3,1.2c0.1,0.1,0.3,0.1,0.4,0.1c0.3,0,0.6-0.2,0.8-0.5l0.6-1
			c0.2-0.4,0.1-1-0.3-1.2S73.4,25.2,73.1,25.7z"/>
		<path class="st0" d="M76.7,27.1v1.2c0,0.5,0.4,0.9,0.9,0.9s0.9-0.4,0.9-0.9v-1.2c0-0.5-0.4-0.9-0.9-0.9S76.7,26.6,76.7,27.1z"/>
		<path class="st0" d="M81,25.3c-0.4,0.2-0.6,0.8-0.3,1.2l0.6,1c0.2,0.3,0.5,0.5,0.8,0.5c0.2,0,0.3,0,0.4-0.1
			c0.4-0.2,0.6-0.8,0.3-1.2l-0.6-1C81.9,25.2,81.4,25.1,81,25.3z"/>
		<path class="st0" d="M83.7,24.2l1,0.6c0.1,0.1,0.3,0.1,0.4,0.1c0.3,0,0.6-0.2,0.8-0.5c0.2-0.4,0.1-1-0.3-1.2l-1-0.6
			c-0.4-0.3-1-0.1-1.2,0.3C83.1,23.4,83.3,23.9,83.7,24.2z"/>
		<path class="st0" d="M84.3,19.6c0,0.5,0.4,0.9,0.9,0.9h1.2c0.5,0,0.9-0.4,0.9-0.9s-0.4-0.9-0.9-0.9h-1.2
			C84.7,18.7,84.3,19.1,84.3,19.6z"/>
		<path class="st0" d="M84.2,16.8c0.2,0,0.3,0,0.4-0.1l1-0.6c0.4-0.2,0.6-0.8,0.3-1.2c-0.2-0.4-0.8-0.6-1.2-0.3l-1,0.6
			c-0.4,0.2-0.6,0.8-0.3,1.2C83.5,16.6,83.8,16.8,84.2,16.8z"/>
		<path class="st0" d="M81,13.9c0.1,0.1,0.3,0.1,0.4,0.1c0.3,0,0.6-0.2,0.8-0.5l0.6-1c0.2-0.4,0.1-1-0.3-1.2s-1-0.1-1.2,0.3l-0.6,1
			C80.4,13.1,80.5,13.7,81,13.9z"/>
		
			<rect x="4.9" y="74.6" transform="matrix(0.9994 -3.515106e-02 3.515106e-02 0.9994 -2.6267 1.8008)" class="st0" width="90" height="2"/>
		<path class="st0" d="M49.5,72.4L49.5,72.4h26.8l0,0l0,0H95v-2H77l-1.2-3.8c0.6,0,1-0.4,1-1s-0.4-1-1-1H52L50.9,62h7.8
			c0.6,0,1-0.4,1-1s-0.4-1-1-1H50l-2.7-6.3c-0.2-0.5-0.8-0.7-1.3-0.5s-0.7,0.8-0.5,1.3l4.7,11.1v0.1l-1.5,4.7H45
			c0.1-0.2,0.1-0.4,0-0.6l-10.3-29c0.9-0.1,1.9,0.1,2.7,0.7c0.3,0.2,0.7,0.3,1,0.1c0.3-0.1,0.6-0.4,0.7-0.8c0.4-1.3,1.3-2.3,2.5-2.7
			s2.6-0.3,3.7,0.5c0.3,0.2,0.7,0.3,1,0.1c0.3-0.1,0.6-0.4,0.7-0.8c0.4-1.3,1.3-2.3,2.5-2.7s2.4-0.3,3.5,0.4c0.4,0.3,1,0.2,1.3-0.1
			c0.4-0.3,0.5-0.9,0.3-1.3C50.7,23.4,38.7,17.6,27.7,21l-0.5-1.5c-0.2-0.5-0.8-0.8-1.3-0.6c-0.5,0.2-0.8,0.8-0.6,1.3l0.5,1.5
			C15.1,26,9.5,38.1,13.1,49.1l0,0c0.2,0.5,0.6,0.8,1.1,0.8l0,0c0.5,0,0.9-0.3,1.1-0.8c0.4-1.2,1.3-2.1,2.5-2.5s2.6-0.3,3.7,0.5
			c0.3,0.2,0.7,0.3,1,0.1c0.3-0.1,0.6-0.4,0.7-0.8c0.4-1.3,1.3-2.3,2.5-2.7s2.6-0.3,3.7,0.5c0.3,0.2,0.7,0.3,1,0.1
			c0.3-0.1,0.6-0.4,0.7-0.8c0.3-0.9,0.9-1.7,1.7-2.2l10.3,28.9H5v2L49.5,72.4L49.5,72.4z M41,36.3c-1.1,0.4-2,1.1-2.7,2
			c-2.1-5.5-5.2-12.4-8.2-15.5c5.1,0.2,10.8,5.5,14.2,13.3C43.2,35.8,42.1,35.9,41,36.3z M52.2,33.2C51.1,33,50,33.1,49,33.4
			c-1.1,0.4-2.1,1.1-2.8,2c-2.7-6.4-7-11.2-11.5-13.4C42,22.3,48.8,26.5,52.2,33.2z M17.1,44.8c-1,0.4-1.9,1-2.6,1.8
			c-1.6-7.3,1.1-15,6.6-19.7c-2.1,4.5-2.4,11-0.5,17.7C19.4,44.3,18.2,44.4,17.1,44.8z M25.1,41.9c-1.1,0.4-2,1-2.7,1.9
			c-2.3-8.2-1.2-15.9,2.7-19.2c-0.3,4.2,1.6,11.6,3.4,17.2C27.3,41.5,26.2,41.6,25.1,41.9z M30.3,41.1c-3.5-10.5-3.8-17.1-3-17.9
			l0,0c1.1,0,5.1,5.4,9,15.7c-1.1-0.2-2.3-0.2-3.3,0.2S31,40.2,30.3,41.1z M52.1,66.6h21.6l1.2,3.8h-24L52.1,66.6z"/>
	</g>
</g>
</svg>
