<svg xmlns="http://www.w3.org/2000/svg" xmlns:xlink="http://www.w3.org/1999/xlink" xml:space="preserve" style="shape-rendering:geometricPrecision;text-rendering:geometricPrecision;image-rendering:optimizeQuality;" viewBox="0 0 0.934873 1.22506375" x="0px" y="0px" fill-rule="evenodd" clip-rule="evenodd"><defs><style type="text/css">
   
    .fil0 {fill:#28A1E1;}
   
  </style></defs><g><path class="fil0" d="M0.692668 0.111017c0.014512,0.00848657 0.028353,0.0176769 0.0415233,0.027497 0.0227104,-0.000197553 0.0471906,0.00761816 0.0709834,0.0214099 0.0373541,0.0216568 0.0731524,0.0581466 0.0975297,0.101366 0.021772,0.0386052 0.034292,0.0828202 0.031872,0.125648 -0.00152281,0.0269537 -0.00894753,0.0533641 -0.0236735,0.0774986 0.00182737,0.0278303 0.00103304,0.0559364 -0.00247353,0.0839273 0.00986121,0.0188664 0.0145613,0.0423053 0.0145161,0.0677897 -7.81983e-005,0.0431778 -0.0137835,0.0924262 -0.0390209,0.135147 -0.0225499,0.0381566 -0.0545824,0.0711069 -0.0928831,0.0904219 -0.0227475,0.0114787 -0.0477092,0.0181543 -0.0741978,0.0182984 -0.0294149,0.0198212 -0.0609741,0.0359218 -0.0938996,0.048096 -0.0114499,0.014512 -0.0251346,0.0267068 -0.0403832,0.0366956 -0.0358848,0.023513 -0.080429,0.0347818 -0.124755,0.0352263 -0.0496106,0.000493884 -0.0991142,-0.0122607 -0.136542,-0.0337816 -0.0283242,-0.0162858 -0.049837,-0.0376339 -0.0594924,-0.0621758 -0.00540391,-0.00286864 -0.0107708,-0.00585252 -0.0160965,-0.00897222 -0.0216774,-0.0126805 -0.0418772,-0.0269208 -0.0605378,-0.0424946 -0.0187511,-0.00257643 -0.0365844,-0.00840014 -0.0532366,-0.0168044 -0.0383048,-0.0193191 -0.0703332,-0.0522652 -0.0928831,-0.090426 -0.0252333,-0.0427168 -0.0389386,-0.0919694 -0.0390168,-0.135143 -6.17355e-005,-0.0343167 0.00847834,-0.0649169 0.0266491,-0.0856559 -0.000757288,-0.027995 0.00114005,-0.0561834 0.00579079,-0.0841701 -0.00848245,-0.0189857 -0.0130015,-0.0390333 -0.0141498,-0.0593895 -0.00242003,-0.0428362 0.0100958,-0.087047 0.0318678,-0.125652 0.0243814,-0.0432148 0.0601797,-0.0797087 0.0975297,-0.101361 0.0310077,-0.0179733 0.0631965,-0.0258054 0.0910845,-0.018961 0.0186071,-0.0113182 0.0379714,-0.0212164 0.0579079,-0.0296371 0.0111124,-0.0201175 0.0303203,-0.0377163 0.0545001,-0.0516191 0.0374323,-0.0215169 0.0869359,-0.0342714 0.136551,-0.0337775 0.044322,0.000448611 0.0888744,0.0117092 0.124755,0.0352263 0.0238134,0.0155985 0.0438157,0.0365803 0.0574387,0.0633447 0.00764697,0.00390168 0.0152363,0.00804207 0.0227433,0.0124294zm0.0524628 0.0359259c0.0765726,0.0608918 0.128587,0.143741 0.152223,0.23401 0.00595541,0.0227392 0.0100999,0.0459477 0.0123924,0.0693948 0.0103304,-0.0201998 0.0156973,-0.041832 0.0169402,-0.0638551 0.00232948,-0.0412763 -0.00978301,-0.083989 -0.0308554,-0.121351 -0.0236858,-0.0419925 -0.0584182,-0.0774204 -0.0946117,-0.0984022 -0.0187964,-0.0108984 -0.0379591,-0.0178745 -0.0560887,-0.0197965zm0.161216 0.416027c-0.00841249,0.0526974 -0.0265586,0.104757 -0.0551298,0.153594 -0.0320242,0.054747 -0.0740002,0.100065 -0.122281,0.135011 0.0207308,-0.00177387 0.040375,-0.0077334 0.0585499,-0.0169032 0.0369096,-0.0186235 0.067839,-0.0504667 0.0896605,-0.0873968 0.0245254,-0.041515 0.0378397,-0.0893024 0.0379138,-0.131143 3.70413e-005,-0.0194673 -0.00279867,-0.0376092 -0.00871293,-0.0531625zm-0.298322 0.350365c-0.00883229,0.00291803 -0.0177469,0.00555619 -0.0267397,0.00791037 -0.100172,0.0262293 -0.209489,0.0175123 -0.308109,-0.0313163 0.0102851,0.0191792 0.0286823,0.0360864 0.052006,0.0494954 0.0362758,0.0208501 0.0843224,0.0332137 0.132534,0.0327321 0.0428897,-0.000428033 0.0859358,-0.0112894 0.12052,-0.0339504 0.010849,-0.00710781 0.0208666,-0.0153804 0.0297894,-0.0248712zm-0.434626 -0.0908664c-0.065773,-0.0589327 -0.110869,-0.135032 -0.13241,-0.217292 -0.00755642,-0.0288716 -0.0122154,-0.0585005 -0.0138411,-0.0884175 -0.0131167,0.0188828 -0.0193232,0.0447335 -0.0192697,0.0734611 7.81983e-005,0.0418361 0.0133966,0.0896317 0.0379179,0.131138 0.0218173,0.0369343 0.0527468,0.0687815 0.0896646,0.087401 0.0120343,0.00607065 0.024723,0.0107379 0.0379385,0.0137094zm-0.138279 -0.416628c0.00940025,-0.0467626 0.0265709,-0.0927966 0.0520018,-0.136271 0.0362758,-0.062003 0.085302,-0.11191 0.141802,-0.14835 -0.0239287,-0.00322671 -0.0509565,0.00434206 -0.0772763,0.0196031 -0.0361934,0.0209859 -0.0709258,0.0564139 -0.0946158,0.0984063 -0.0210724,0.0373623 -0.033189,0.0800709 -0.0308595,0.121351 0.000868412,0.0153968 0.00375763,0.0306002 0.00894753,0.0452603zm0.274031 -0.325465c0.0156726,-0.00606242 0.0316744,-0.0112441 0.0479108,-0.0154956 0.0975791,-0.0255503 0.203842,-0.0179527 0.300446,0.0276081 -0.012627,-0.0209119 -0.0296124,-0.037708 -0.0493513,-0.0506395 -0.0345801,-0.0226569 -0.0776262,-0.0335224 -0.12052,-0.0339545 -0.0482113,-0.000477421 -0.0962579,0.0118861 -0.132534,0.0327363 -0.0192862,0.0110918 -0.0352057,0.0245666 -0.0459518,0.0397453zm0.323753 0.0321148l-0.0578338 0.13632c-0.0561011,-0.0244061 -0.117112,-0.0279826 -0.173324,-0.0132649 -0.00675798,0.00176563 -0.0134378,0.00380702 -0.0200352,0.00609946l-0.0496682 -0.139493c0.0105979,-0.00371236 0.0213399,-0.0070008 0.0322012,-0.00984475 0.0871211,-0.0228133 0.181646,-0.0173806 0.26866,0.0201834zm0.0116762 0.180276l0.0965049 -0.112322c0.0642337,0.055743 0.108156,0.128677 0.128842,0.207686 0.0049018,0.0187223 0.00849068,0.0377862 0.0107502,0.0570436l-0.146967 0.0180803c-0.00144049,-0.012701 -0.00379056,-0.0252745 -0.00701726,-0.0376175 -0.0132237,-0.0504955 -0.0412146,-0.0971305 -0.0821123,-0.132871zm0.0859152 0.25137c-0.005585,0.0286 -0.0160059,0.0567637 -0.0315509,0.0833429 -0.0182408,0.0311846 -0.0418525,0.0572823 -0.0689709,0.0778114l0.0891542 0.11826c0.0423176,-0.031979 0.0791613,-0.0726668 0.107617,-0.121306 0.0243732,-0.0416673 0.0406507,-0.0858411 0.0493019,-0.13069l-0.145552 -0.0274188zm-0.171143 0.199389c-0.00748234,0.00268344 -0.0150717,0.00504585 -0.0227557,0.00705842 -0.0546235,0.0142979 -0.113766,0.0113264 -0.168538,-0.01124l-0.0571959 0.136592c0.0855077,0.0354773 0.177922,0.0402227 0.26324,0.0178827 0.011561,-0.00302915 0.0229985,-0.00655219 0.0342673,-0.0105691l-0.049018 -0.139724zm-0.260647 -0.0459477c-0.0435935,-0.0362511 -0.0733088,-0.0845817 -0.0870511,-0.137086 -0.00269167,-0.0102687 -0.00476598,-0.0206978 -0.00621882,-0.0312299l-0.146881 0.0187552c0.00226363,0.0168538 0.00556031,0.0335512 0.00986121,0.0499769 0.0212699,0.0812398 0.0671023,0.156051 0.134308,0.212354l0.0959822 -0.11277zm-0.0917842 -0.250568c0.0053216,-0.0303245 0.0160224,-0.0602291 0.0324811,-0.0883599 0.0182819,-0.0312628 0.0419678,-0.057414 0.0691725,-0.0779637l-0.0897016 -0.117845c-0.0421736,0.0319378 -0.0788979,0.0725392 -0.107276,0.121047 -0.0254021,0.0434288 -0.0420048,0.0895823 -0.0503556,0.136382l0.145679 0.0267397zm0.492344 -0.0141909c-0.0154215,-0.0588833 -0.0533024,-0.111889 -0.109996,-0.145054 -0.0566896,-0.0331643 -0.121462,-0.0402104 -0.180342,-0.0247971 -0.0588833,0.0154215 -0.111889,0.0533106 -0.145054,0.109996 -0.0331643,0.0566937 -0.0402104,0.121462 -0.0247971,0.180346 0.0154174,0.0588833 0.0533024,0.111889 0.109996,0.14505 0.0566896,0.0331643 0.121458,0.0402145 0.180346,0.0247971 0.0588792,-0.0154174 0.111889,-0.0533024 0.14505,-0.109992 0.0331643,-0.0566896 0.0402104,-0.121462 0.0247971,-0.180346z"/></g></svg>